<?xml version="1.0" encoding="UTF-8" standalone="no"?>
<!-- Created with Inkscape (http://www.inkscape.org/) -->

<svg
   xmlns:dc="http://purl.org/dc/elements/1.1/"
   xmlns:cc="http://creativecommons.org/ns#"
   xmlns:rdf="http://www.w3.org/1999/02/22-rdf-syntax-ns#"
   xmlns:svg="http://www.w3.org/2000/svg"
   xmlns="http://www.w3.org/2000/svg"
   xmlns:sodipodi="http://sodipodi.sourceforge.net/DTD/sodipodi-0.dtd"
   xmlns:inkscape="http://www.inkscape.org/namespaces/inkscape"
   viewBox="0 0 625 625"
   id="svg3353"
   version="1.1"
   inkscape:version="0.91 r13725"
   sodipodi:docname="shutter icon.svg">
  <defs
     id="defs3355">
    <clipPath
       id="clipPath5578"
       clipPathUnits="userSpaceOnUse">
      <path
         inkscape:connector-curvature="0"
         id="path5580"
         d="M 0,500 500,500 500,0 0,0 0,500 Z" />
    </clipPath>
  </defs>
  <sodipodi:namedview
     id="base"
     pagecolor="#ffffff"
     bordercolor="#666666"
     borderopacity="1.0"
     inkscape:pageopacity="0.0"
     inkscape:pageshadow="2"
     inkscape:zoom="0.36701389"
     inkscape:cx="562.26352"
     inkscape:cy="204.15563"
     inkscape:document-units="px"
     inkscape:current-layer="layer1"
     showgrid="false"
     units="px"
     inkscape:showpageshadow="false"
     borderlayer="false" />
  <metadata
     id="metadata3358">
    <rdf:RDF>
      <cc:Work
         rdf:about="">
        <dc:format>image/svg+xml</dc:format>
        <dc:type
           rdf:resource="http://purl.org/dc/dcmitype/StillImage" />
        <dc:title></dc:title>
      </cc:Work>
    </rdf:RDF>
  </metadata>
  <g
     inkscape:label="Layer 1"
     inkscape:groupmode="layer"
     id="layer1"
     transform="translate(-1434.9361,-112.57739)">
    <g
       transform="matrix(1.25,0,0,-1.25,1434.9361,737.57739)"
       inkscape:label="shutter icon"
       id="g5572">
      <g
         id="g5574">
        <g
           clip-path="url(#clipPath5578)"
           id="g5576">
          <g
             transform="translate(276.31,324)"
             id="g5582">
            <path
               inkscape:connector-curvature="0"
               id="path5584"
               style="fill:#DDDDDD;fill-opacity:1;fill-rule:nonzero;stroke:none"
               d="m 0,0 -265.17,0 c 24.73,79.94 88.49,142.72 169.02,166.1 L 0,0 Z" />
          </g>
          <g
             transform="translate(197.75,309)"
             id="g5586">
            <path
               inkscape:connector-curvature="0"
               id="path5588"
               style="fill:#DDDDDD;fill-opacity:1;fill-rule:nonzero;stroke:none"
               d="m 0,0 -130.72,-229.34 c -41.58,44.65 -67.03,104.52 -67.03,170.34 0,20.33 2.44,40.08 7.02,59 L 0,0 Z" />
          </g>
          <g
             transform="translate(424.94,428.57)"
             id="g5590">
            <path
               inkscape:connector-curvature="0"
               id="path5592"
               style="fill:#DDDDDD;fill-opacity:1;fill-rule:nonzero;stroke:none"
               d="M 0,0 -96.53,-164.62 -229.69,65.4 c 17.62,3.94 35.94,6.03 54.75,6.03 C -106.83,71.43 -45.09,44.18 0,0" />
          </g>
          <g
             transform="translate(487.9,173)"
             id="g5594">
            <path
               inkscape:connector-curvature="0"
               id="path5596"
               style="fill:#ADADAD;fill-opacity:1;fill-rule:nonzero;stroke:none"
               d="M 0,0 C -25.65,-79.3 -89.83,-141.25 -170.47,-163.79 L -263.79,0 0,0 Z" />
          </g>
          <g
             transform="translate(302.28,5.49)"
             id="g5598">
            <path
               inkscape:connector-curvature="0"
               id="path5600"
               style="fill:#ADADAD;fill-opacity:1;fill-rule:nonzero;stroke:none"
               d="m 0,0 c -16.86,-3.59 -34.35,-5.49 -52.28,-5.49 -66.65,0 -127.2,26.08 -172.01,68.59 L -130.1,228.35 0,0 Z" />
          </g>
          <g
             transform="translate(500,250)"
             id="g5602">
            <path
               inkscape:connector-curvature="0"
               id="path5604"
               style="fill:#ADADAD;fill-opacity:1;fill-rule:nonzero;stroke:none"
               d="m 0,0 c 0,-21.4 -2.69,-42.17 -7.75,-62 l -190.98,0 134.46,229.33 C -24.32,123.02 0,64.35 0,0" />
          </g>
        </g>
      </g>
    </g>
  </g>
</svg>
